<svg xmlns="http://www.w3.org/2000/svg" width="147.375" height="101.014" viewBox="0 0 147.375 101.014">
  <g id="Group_1" data-name="Group 1" transform="translate(-1440 -1258.423)">
    <path id="path66" d="M396.294-536.488a23.833,23.833,0,0,1-8.144-12.46h-14l13.11-11.631q-.03-2.878-.03-6.6,0-11.585.31-14.838a22.8,22.8,0,0,1,5.506-12.55,25.237,25.237,0,0,0-2.409-2.588,24.178,24.178,0,0,0-17.406-6.894,24.594,24.594,0,0,0-18.135,7.514,25.132,25.132,0,0,0-7.415,18.226h17.207c0-5.246,3.707-9.263,8.343-9.263a7.155,7.155,0,0,1,7.415,6.894c0,2.788-1.239,5.355-3.817,7.724L345.425-544.1v12.87h60.9a26.2,26.2,0,0,1-10.032-5.256" transform="translate(1094.575 1862.469)" fill="#0169ff"/>
    <path id="path68" d="M534.777-554.405a8.817,8.817,0,0,1-8.853,7.415c-4.846,0-8.454-3.2-8.863-7.415-.2-1.548-.31-5.875-.31-12.77,0-6.5.109-10.611.31-12.16.409-4.216,4.017-7.414,8.863-7.414a8.817,8.817,0,0,1,8.853,7.414c.21,1.549.31,5.664.31,12.16,0,6.9-.1,11.222-.31,12.77m18.436-27.609c-.72-6.274-3.807-11.531-9.063-15.758a29.056,29.056,0,0,0-18.746-6.275,27.3,27.3,0,0,0-18.026,6.275,26.34,26.34,0,0,0-4.117,4.268,22.1,22.1,0,0,1,4.776,11.49q.314,3.253.31,14.839c0,7.724-.1,12.77-.31,14.928a22.124,22.124,0,0,1-4.776,11.5,26.632,26.632,0,0,0,4.117,4.257A27.248,27.248,0,0,0,525.4-530.2a29,29,0,0,0,18.746-6.285c5.256-4.217,8.343-9.473,9.063-15.758.21-2.158.31-7.2.31-14.928s-.1-12.67-.31-14.839" transform="translate(1033.853 1862.47)" fill="#0169ff"/>
    <path id="path70" d="M348.634-453.352a5.147,5.147,0,0,0,4.167,2.059c1.485,0,2.227-.407,2.227-1.2,0-.455-.287-.766-.934-1.03-.311-.12-.647-.239-.981-.335-.647-.193-1.844-.551-2.635-.839-2.562-.957-3.856-2.562-3.856-4.813a4.342,4.342,0,0,1,1.749-3.688,6.824,6.824,0,0,1,4.239-1.317,7.314,7.314,0,0,1,6.179,2.659l-2.994,2.562a3.722,3.722,0,0,0-3.017-1.318c-1.174,0-1.82.432-1.82,1.03a.915.915,0,0,0,.67.959,5.021,5.021,0,0,0,.839.287,27,27,0,0,1,2.946.886c2.874,1.03,4.047,2.538,4.047,4.814,0,3.233-2.227,5.292-6.657,5.292a9.23,9.23,0,0,1-4.622-1.03,8.051,8.051,0,0,1-2.754-2.515" transform="translate(1094.576 1806.682)" fill="#434a4c"/>
    <path id="path72" d="M378.406-452.633a4.39,4.39,0,0,0,3.233,1.317,4.4,4.4,0,0,0,3.209-1.341,4.4,4.4,0,0,0,1.365-3.209,4.4,4.4,0,0,0-1.365-3.209,4.326,4.326,0,0,0-3.209-1.366,4.326,4.326,0,0,0-3.209,1.366,4.393,4.393,0,0,0-1.342,3.209,4.389,4.389,0,0,0,1.318,3.233m9.747,2.874a9.176,9.176,0,0,1-6.514,2.514,9.176,9.176,0,0,1-6.515-2.514,8.1,8.1,0,0,1-2.682-6.107,8.1,8.1,0,0,1,2.682-6.107,9.092,9.092,0,0,1,6.515-2.539,9.092,9.092,0,0,1,6.514,2.539,8.053,8.053,0,0,1,2.707,6.107,8.127,8.127,0,0,1-2.707,6.107" transform="translate(1083.291 1806.682)" fill="#434a4c"/>
    <path id="path74" d="M408.672-447.408V-464.1h4.55v12.573h6.347v4.12" transform="translate(1069.618 1806.51)" fill="#434a4c"/>
    <path id="path76" d="M430.016-464.1h4.55v9.029c0,2.754,1.054,3.784,2.946,3.784s2.946-1.03,2.946-3.784V-464.1h4.551v9.508a7.059,7.059,0,0,1-2.132,5.532,7.73,7.73,0,0,1-5.365,1.892,7.731,7.731,0,0,1-5.365-1.892,7.059,7.059,0,0,1-2.131-5.532" transform="translate(1061.259 1806.51)" fill="#434a4c"/>
    <path id="path78" d="M464.244-447.408v-12.573h-4.5V-464.1H473.2v4.119h-4.406v12.573" transform="translate(1049.519 1806.51)" fill="#434a4c"/>
    <path id="path80" d="M486.595-447.408h4.551V-464.1h-4.551Z" transform="translate(1038.721 1806.51)" fill="#434a4c"/>
    <path id="path82" d="M505.143-452.633a4.391,4.391,0,0,0,3.233,1.317,4.4,4.4,0,0,0,3.21-1.341,4.407,4.407,0,0,0,1.364-3.209,4.407,4.407,0,0,0-1.364-3.209,4.327,4.327,0,0,0-3.21-1.366,4.324,4.324,0,0,0-3.209,1.366,4.4,4.4,0,0,0-1.342,3.209,4.389,4.389,0,0,0,1.318,3.233m9.747,2.874a9.176,9.176,0,0,1-6.514,2.514,9.177,9.177,0,0,1-6.515-2.514,8.107,8.107,0,0,1-2.681-6.107,8.106,8.106,0,0,1,2.681-6.107,9.093,9.093,0,0,1,6.515-2.539,9.092,9.092,0,0,1,6.514,2.539,8.055,8.055,0,0,1,2.707,6.107,8.129,8.129,0,0,1-2.707,6.107" transform="translate(1034.12 1806.682)" fill="#434a4c"/>
    <path id="path84" d="M535.408-447.408V-464.1h4.073l6.993,8.957V-464.1h4.358v16.693H547.12l-7.353-9.316v9.316" transform="translate(1020.427 1806.51)" fill="#434a4c"/>
    <path id="path86" d="M568.146-453.352a5.148,5.148,0,0,0,4.168,2.059c1.484,0,2.226-.407,2.226-1.2,0-.455-.286-.766-.934-1.03-.31-.12-.646-.239-.981-.335-.647-.193-1.844-.551-2.635-.839-2.562-.957-3.856-2.562-3.856-4.813a4.345,4.345,0,0,1,1.748-3.688,6.831,6.831,0,0,1,4.24-1.317,7.311,7.311,0,0,1,6.179,2.659l-2.993,2.562a3.725,3.725,0,0,0-3.019-1.318c-1.172,0-1.818.432-1.818,1.03a.915.915,0,0,0,.669.959,5.043,5.043,0,0,0,.839.287,26.955,26.955,0,0,1,2.946.886c2.874,1.03,4.047,2.538,4.047,4.814,0,3.233-2.227,5.292-6.657,5.292a9.231,9.231,0,0,1-4.623-1.03,8.048,8.048,0,0,1-2.753-2.515" transform="translate(1008.094 1806.682)" fill="#434a4c"/>
    <path id="path88" d="M467.2-554.771c0,6.894-.1,11.221-.31,12.77a8.808,8.808,0,0,1-8.853,7.414c-4.837,0-8.443-3.2-8.853-7.414-.21-1.549-.31-5.875-.31-12.77,0-6.5.1-10.612.31-12.16.41-4.217,4.017-7.414,8.853-7.414a8.809,8.809,0,0,1,8.853,7.414c.21,1.548.31,5.665.31,12.16" transform="translate(1053.9 1850.798)" fill="#03cad2"/>
    <path id="path90" d="M467.2-554.771c0,6.894-.1,11.221-.31,12.77a8.808,8.808,0,0,1-8.853,7.414c-4.837,0-8.443-3.2-8.853-7.414-.21-1.549-.31-5.875-.31-12.77,0-6.5.1-10.612.31-12.16.41-4.217,4.017-7.414,8.853-7.414a8.809,8.809,0,0,1,8.853,7.414c.21,1.548.31,5.665.31,12.16" transform="translate(1053.9 1850.798)" fill="#0169ff"/>
  </g>
</svg>
